<?xml version="1.0" encoding="utf-8"?>
<!-- Uploaded to: SVG Repo, www.svgrepo.com, Generator: SVG Repo Mixer Tools -->
<svg width="800px" height="800px" viewBox="0 0 1024 1024" class="icon"  version="1.1" xmlns="http://www.w3.org/2000/svg"><path d="M794.063001 396.995153c0.054266-2.269954 0.331739-4.457997 0.331739-6.725903 0-121.314029-98.34009-219.654119-219.654119-219.654119-87.408066 0-162.662614 51.174812-198.008159 125.07476-15.308109-7.69245-32.522693-12.121778-50.789832-12.121779-56.103796 0-102.573856 40.824356-111.654694 94.355129C147.473275 400.840866 99.342474 464.058617 99.342474 538.678356c0 93.855472 76.084918 169.944486 169.915817 170.026397H794.39474v-0.028669c85.718656-0.442318 155.081767-70.025565 155.081767-155.827155-0.001024-85.938791-69.527957-155.604972-155.413506-155.853776zM527.493433 595.33505c-62.60854 0-113.369703-50.761163-113.369703-113.369702 0-61.528341 49.12909-111.377222 110.269378-113.063561v-42.98373l94.825092 54.774793-94.825092 54.746125v-41.351657c-47.162206 1.689411-85.080775 40.300126-85.080775 87.879054 0 48.629434 39.551666 88.182124 88.182124 88.182123s88.182124-39.551666 88.182123-88.182123h25.187579c-0.001024 62.607516-50.762187 113.368679-113.370726 113.368678z" fill="#98C4D8" /><path d="M765.719807 368.651959c0.054266-2.269954 0.331739-4.457997 0.331739-6.725903 0-121.314029-98.34009-219.654119-219.654119-219.654118-87.408066 0-162.662614 51.174812-198.008159 125.074759-15.308109-7.69245-32.522693-12.121778-50.789831-12.121778-56.103796 0-102.573856 40.824356-111.655719 94.355128C119.130081 372.498696 70.99928 435.716448 70.99928 510.336186c0 93.855472 76.084918 169.944486 169.915818 170.026397h525.136448v-0.028668c85.718656-0.442318 155.081767-70.025565 155.081767-155.827156 0-85.938791-69.526933-155.604972-155.413506-155.8548z m-266.568544 198.340922c-62.60854 0-113.369703-50.761163-113.369703-113.369703 0-61.528341 49.12909-111.377222 110.269378-113.063561V297.574864l94.825092 54.774793-94.825092 54.746124v-41.351656c-47.162206 1.689411-85.080775 40.300126-85.080775 87.879053 0 48.630457 39.551666 88.182124 88.182124 88.182124s88.182124-39.551666 88.182124-88.182124h25.187579c-0.001024 62.60854-50.762187 113.369703-113.370727 113.369703z" fill="#EFD9A0" /><path d="M373.859453 290.778547a25.49884 54.185035 55.515 1 0 89.326679-61.3581 25.49884 54.185035 55.515 1 0-89.326679 61.3581Z" fill="#FEFEFE" /><path d="M319.104694 379.948182a16.999568 29.748988 55.515 1 0 49.042662-33.687187 16.999568 29.748988 55.515 1 0-49.042662 33.687187Z" fill="#FEFEFE" /></svg>